<?xml version="1.0" encoding="utf-8"?>
<!-- Generator: Adobe Illustrator 21.1.0, SVG Export Plug-In . SVG Version: 6.00 Build 0)  -->
<svg version="1.1" id="Layer_1" xmlns="http://www.w3.org/2000/svg" xmlns:xlink="http://www.w3.org/1999/xlink" x="0px" y="0px"
	 viewBox="0 0 600 600" style="enable-background:new 0 0 600 600;" xml:space="preserve">
<style type="text/css">
	.st0{fill:#046A39;}
</style>
<path class="st0" d="M249.2,71.3c2.6-6.1,9.1-10.2,15.7-10c23.4,0,46.7,0,70.1,0c6.6-0.2,13.1,3.9,15.7,10
	c2.5,5.3,0.5,11.3,2.2,16.8c2.1,7,7.2,13.2,14,16c8,3.3,16,6.6,24,10c7.1,3.1,15.7,2.2,22.3-1.7c4.4-2.6,7.1-7.4,11.8-9.4
	c6.1-2.9,13.9-1.5,18.7,3.3c17.1,17.2,34.5,34.2,51.5,51.6c4.1,5,4.8,12.5,1.7,18.2c-2.2,4.3-6.7,6.8-9.1,11
	c-4,6.7-4.8,15.4-1.5,22.6c3.2,7.7,6.5,15.5,9.7,23.2c2.7,7,8.9,12.3,16,14.4c5.3,1.7,11.3-0.2,16.5,2.1c6.2,2.5,10.5,8.9,10.4,15.6
	c0,23.4,0,46.7,0,70.1c0.3,6.7-3.8,13.3-10,15.9c-5.3,2.5-11.3,0.5-16.8,2.2c-7,2.1-13.2,7.2-16,14.1c-3.3,8-6.6,16-9.9,24
	c-3.1,7-2.2,15.5,1.5,22c2.6,4.7,7.7,7.4,9.8,12.4c2.8,6.1,1.3,13.8-3.5,18.4c-5.8,5.8-11.5,11.6-17.3,17.2
	c-32.9-33.2-66-66-98.9-99.1c-6.9-7.9-12.7-17.6-13.1-28.4c-0.3-4.5,0.4-9,1.6-13.3c0.8-2,1.5-4,2.4-6c6-12.3,16.6-21.2,26-30.8
	c3.5-2.5,7.2-4.8,10.8-7.1c8.5-5.4,15.7-12.6,20.8-21.2c2.8-5.1,4.2-10.8,4.6-16.5c-0.6-5.1-1.8-10-4.1-14.6
	c-5.1-8.8-12.1-16.4-21.2-21.2c-1.4-0.5-2.7-1-4.1-1.5c-2-0.9-4.1-1.6-6.2-2.4c-1-0.4-1.9-0.7-2.9-1.1c-0.5-0.1-1.4-0.3-1.9-0.4
	c-8.8-3.7-17.1-8.7-23.8-15.6c-6.8-7.1-14.7-13.5-24.2-16.6c-7.9-2.7-16.9-2.4-24.2,1.7c-5.9,3.1-13.1,2-18.8-1
	c-8.3-3.3-17.9-4.9-26.2-1c-4.3,1.5-7.1,5.4-10.9,7.6c-0.5,0.1-1.5,0.2-1.9,0.3c-5.2,1.5-10.7,1.8-16,3c-1,0.3-2.1,0.7-3.1,1
	c-8.2,2.8-14.8,9.2-18.2,17.2c-1.8,5.6-1.8,11.8,0.5,17.2c0.1,0.5,0.3,1.4,0.5,1.9c5.9,13,16.1,23.3,26.1,33.2
	c3,2.9,5.5,6.2,7.6,9.8c-0.3,0.4-1,1.3-1.3,1.7c-8.7-5.2-15.4-12.9-22.7-19.9c-4.8-4-9.7-8-15.1-11c-2.1-0.9-4.1-2-6.1-3
	c-0.5-0.1-1.4-0.3-1.9-0.5c-6.3-2.5-13.1-1.8-19.2,0.9c-5.3,3.1-9.8,7.5-12.8,12.9c-3.4,7-3.6,14.8-5.4,22.1
	c-0.1,0.5-0.3,1.4-0.4,1.8c-2.2,5.1-7.1,8.5-8.6,14c-0.4,1.1-0.8,2.1-1.1,3.2c-0.4,5.3-0.7,10.9,1.1,16c1.6,6.1,5.6,11.9,4.6,18.5
	c-0.7,3.3-2.2,6.3-3.6,9.3c-0.4,1-0.8,2-1.2,3.1c-0.6,6.7-0.8,13.8,2.1,20.1c3.4,8.9,10.2,15.7,16.5,22.6c7.5,7.2,12.5,16.6,16,26.4
	c2.1,6.3,4.3,12.8,8.5,18.1c5,6.1,11.1,11.4,18.1,15.1c6.7,3,14.5,4.4,21.7,2.1c8.5-2.4,15.7-7.9,21.8-14.2
	c6.8-7,10.7-16.4,17.5-23.5c7.4-7.3,14.3-15.2,23.3-20.6c8.5-5.5,19-8.2,29.1-6.2c5.2,1.2,10.3,3.1,14.8,6.2
	c6.2,4,11.7,8.8,16.8,14.1c30.4,30.3,60.6,60.8,91,91.2c-5.9,5.9-11.8,11.8-17.7,17.7c-4.9,4.8-12.8,5.9-18.8,2.8
	c-4.3-2.1-6.9-6.5-11-9c-6.7-4.1-15.5-5-22.8-1.8c-7.8,3.2-15.5,6.5-23.3,9.7c-6.9,2.6-12.3,8.7-14.4,15.7
	c-0.7,6.2-0.1,12.7-2.7,18.6c-1.9,2.6-4.1,5.1-6.9,6.8c-1,0.5-2.1,1-3.1,1.6c-25.1,0.3-50.3,0-75.4,0.2c-7.6,0.5-14.8-5.3-16.6-12.5
	c-0.9-5.1,0.2-10.5-1.7-15.4c-2.4-6.4-7.2-12-13.6-14.6c-7.9-3.3-15.9-6.6-23.8-9.9c-7.3-3.3-16.1-2.5-22.9,1.7
	c-4.3,2.6-7,7.4-11.7,9.4c-6.2,2.9-14.1,1.3-18.8-3.6c-16.5-16.5-32.9-33-49.4-49.5c-4.8-4.4-6.7-11.5-4.5-17.6
	c1.1-3.6,3.7-6.3,6.3-8.8c7.4-6.9,9.4-18.6,5.2-27.7c-3.2-7.5-6.3-15-9.4-22.5c-3.5-9.3-13.1-16-23.1-15.6c-3.4,0-6.9,0.1-10-1.4
	c-5.9-2.5-10-8.6-10-15c0-23.7,0-47.3,0-71c-0.2-6.8,4.2-13.3,10.5-15.7c5-2.1,10.5-0.5,15.7-1.9c7.4-2,13.9-7.4,16.7-14.6
	c3.2-7.8,6.4-15.5,9.7-23.3c3.2-7.2,2.5-15.9-1.5-22.6c-2.5-4.4-7.4-7-9.4-11.8c-3-6.3-1.5-14.2,3.5-19c16.7-16.7,33.4-33.4,50.1-50
	c4.8-4.9,12.6-6.2,18.7-3.3c4.7,2.1,7.4,6.9,11.8,9.4c6.7,3.9,15.3,4.8,22.5,1.6c7.9-3.3,15.9-6.6,23.9-9.9
	c7-2.9,12.2-9.3,14.1-16.5C248.6,82.2,246.8,76.4,249.2,71.3z"/>
</svg>
